<svg xmlns="http://www.w3.org/2000/svg" viewBox="20 20 210 192" fill="none">
  <path d="M230 110.322L177.797 20H72.2025L20 110.322V211.988H31.5518V113.415L78.8679 31.5412H138.764L107.424 96.3684L80.1617 113.161C74.5245 113.426 68.9796 115.019 63.9546 117.927C55.6719 122.705 49.7459 130.427 47.2738 139.648C44.8017 148.881 46.0724 158.518 50.8548 166.793C55.6373 175.068 63.3654 180.989 72.5953 183.459C75.6796 184.289 78.8102 184.693 81.9176 184.693C84.5399 184.693 87.139 184.382 89.692 183.805L73.4039 211.988H86.7462L112.472 167.474C114.205 164.612 115.556 161.484 116.446 158.16C116.758 157.006 117.012 155.84 117.197 154.675H132.792C133.485 158.887 134.929 162.984 137.135 166.793C141.918 175.068 149.646 180.989 158.876 183.459C161.96 184.289 165.09 184.693 168.198 184.693C170.82 184.693 173.419 184.382 175.972 183.805L159.684 211.988H173.027L198.752 167.474C200.485 164.612 201.837 161.484 202.726 158.16C205.198 148.927 203.928 139.29 199.145 131.015C194.363 122.74 186.635 116.819 177.405 114.35C175.476 113.83 173.523 113.484 171.571 113.299L139.168 57.232L151.586 31.5528H171.132L218.448 113.426V212H230V110.333V110.322ZM105.287 155.171C103.612 161.426 99.5918 166.654 93.9892 169.886C88.3751 173.129 81.8367 173.983 75.5757 172.31C69.3146 170.636 64.0816 166.62 60.8471 161.022C57.6126 155.425 56.7462 148.881 58.4213 142.626C60.0963 136.37 64.1163 131.142 69.7189 127.911C73.4617 125.752 77.6088 124.656 81.8136 124.656C83.9161 124.656 86.0416 124.933 88.1325 125.487C94.3935 127.16 99.6265 131.177 102.861 136.774C106.096 142.372 106.962 148.916 105.287 155.171ZM174.424 125.487C180.685 127.16 185.918 131.177 189.153 136.774C192.387 142.372 193.254 148.916 191.579 155.171C189.904 161.426 185.884 166.654 180.281 169.886C174.667 173.129 168.129 173.983 161.868 172.31C155.606 170.636 150.374 166.62 147.139 161.022C143.905 155.425 143.038 148.881 144.713 142.626C146.388 136.37 150.408 131.142 156.011 127.911C159.754 125.752 163.901 124.656 168.106 124.656C170.208 124.656 172.333 124.933 174.424 125.487ZM158.853 114.338C155.872 115.146 152.984 116.335 150.246 117.916C141.964 122.694 136.038 130.415 133.566 139.636C133.254 140.791 133 141.956 132.815 143.122H117.22C116.527 138.909 115.083 134.812 112.876 131.004C109.122 124.517 103.566 119.485 96.8772 116.415L116.365 104.413L133.115 69.7774L158.864 114.338H158.853Z" fill="#606060"/>
</svg>
